<svg xmlns="http://www.w3.org/2000/svg" xmlns:xlink="http://www.w3.org/1999/xlink" width="152" height="132" viewBox="0 0 152 132"><defs><path id="prefix__a" d="M0 0h108v108H0z"/></defs><g fill="none" fill-rule="evenodd"><path fill="#7E3F97" fill-opacity=".154" d="M62.5 110.215l-17.608 12.253-8.189-19.828-21.437.789 3.831-21.107L.636 71.395l14.635-15.686-9.623-19.172 20.791-5.284L28.71 9.922l20.347 6.796L62.5 0l13.443 16.718L96.29 9.922l2.271 21.331 20.791 5.284-9.623 19.172 14.635 15.686-18.461 10.927 3.831 21.107-21.437-.789-8.189 19.828z"/><g transform="translate(43.5 25)"><mask id="prefix__b" fill="#fff"><use xlink:href="#prefix__a"/></mask><path fill="#000" stroke="#FFF" stroke-width=".4" d="M4.449 67.572h99.102c-1.95 7.965-5.282 15.196-9.587 21.067-7.034 9.59-16.496 15.536-26.426 15.552-8.629.095-18.447.095-27.038 0-9.945 0-19.422-5.915-26.464-15.514-4.311-5.876-7.638-13.114-9.587-21.105h0zM2.532 52.9h102.937a67.454 67.454 0 0 1-1.38 12.219H3.913c-.807-3.94-1.304-8.028-1.381-12.219h0zm18.332-9.882A6.115 6.115 0 0 1 27 49.147c0 .454-.06.876-.153 1.302H14.88a5.947 5.947 0 0 1-.154-1.302c0-3.4 2.733-6.129 6.137-6.129h0zm19.636-7.43a9.793 9.793 0 0 1 9.818 9.806c0 2.413-.616 3.696-1.419 5.056H32.101a9.753 9.753 0 0 1-1.42-5.056c.169-6.065 5.255-9.669 9.819-9.806h0zm5.523-13.522a1.839 1.839 0 1 0-.001 3.677 1.84 1.84 0 0 0 1.842-1.839 1.84 1.84 0 0 0-1.841-1.838h0zm-13.5-5.478c1.74 3.566 4.48 7.259 7.479 10.65 3.752 4.246 7.874 7.9 11.121 9.959-.103.526-.223 1.068-.307 1.609-2.184-3.403-5.98-5.67-10.316-5.67-2.441 0-4.725.72-6.635 1.954-1.77-5.71-2.595-11.439-1.342-18.502h0zm-10.815-1.762c3.752 2.143 6.177 4.897 7.709 7.853-.032 5.091 1.002 9.621 2.454 14.058-2.088 2.086-3.45 4.904-3.606 8.044a8.609 8.609 0 0 0-7.401-4.214c-4.73 0-8.591 3.856-8.591 8.581 0 .443.05.876.115 1.302H7.172c-3.027-7.62-2.934-15.205-.152-21.604 2.759-6.791 9.212-11.597 14.689-14.02h0zm12.54-.497l8.476 3.485c-.91.112-1.61.862-1.61 1.8a1.84 1.84 0 1 0 3.681 0c0-.419-.147-.8-.382-1.11l4.947 1.992a1.839 1.839 0 0 0 .958 3.408c1.39-.22 1.817-1.05 1.803-2.26l3.566 1.456c.387.5.408 1.14.499 1.533a2.454 2.454 0 0 0-4.641 1.111c0 1.354 1.1 2.45 2.455 2.45.04 0 .077.002.115 0a34.687 34.687 0 0 0-2.416 6.437c-1.078-.744-2.26-1.705-3.529-2.797a2.436 2.436 0 0 0 2.148-2.413c0-1.354-1.1-2.451-2.454-2.451a2.454 2.454 0 0 0-2.455 2.375 66.897 66.897 0 0 1-3.566-3.716c-2.828-3.65-5.889-7.43-7.595-11.3h0zm42.341-5.44a1.27 1.27 0 0 0 1.574.115C84.5 4.468 91.825 5.088 96.61 8.966c4.784 3.878 7.155 11.023 3.03 20.301-.167.38-.122.846.114 1.188 2.956 4.074 3.73 6.997 3.183 9.96-.533 2.884-2.49 5.997-5.407 10.035H61.708l6.597-6.934c3.335.023 6.264.243 8.13 2.107.452.462 1.283.472 1.746.02.461-.452.471-1.281.02-1.743-2.116-2.113-4.891-2.565-7.67-2.681l7.746-8.121c3.847-.03 7.205.223 9.204 2.107.452.461 1.284.471 1.745.02.463-.452.472-1.283.02-1.743-2.38-2.377-5.59-2.672-8.706-2.721l7.479-7.852c.504-.514.27-1.409-.265-1.837-.667-.421-.944-.1-1.5.152l-6.864 7.162c-.458-3.104-1.553-6.3-3.644-8.388a1.253 1.253 0 0 0-1.151-.383c-.892.162-1.28 1.492-.614 2.107 1.79 1.787 3 5.687 3.261 8.925L68.458 39.8c-.358-3.403-1.442-7.07-3.757-9.384a1.26 1.26 0 0 0-1.152-.384c-.892.162-1.28 1.493-.613 2.107 1.984 1.982 3.291 6.57 3.337 9.96l-7.978 8.35h-6.634a12.084 12.084 0 0 0 1.112-5.056c.014-8.314 2.436-15.528 5.907-20.148.262-.359.309-.864.114-1.264-1.21-2.416-2.065-4.44-2.34-6.359-.62-5.845 5.21-10.469 10.356-11.568 3.558-.678 7.602.75 9.78 2.835h0zM39.12 1.229c5.678-.133 11.72 3.175 15.84 10.075-1.013 2.336-1.265 4.534-.959 6.665.096.671.264 1.333.46 1.992l-21.822-8.925c-.881-.26-1.2.288-1.65.804a44.703 44.703 0 0 0-1.304 6.741c-1.405-2.653-3.569-4.488-5.1-5.324C27.079 6.228 32.956 1.52 39.118 1.228h0zm-.038-2.451c-6.811.16-13.254 4.682-16.53 13.138-8.59 3.164-14.726 8.91-17.795 15.974-2.947 6.78-3.09 14.69-.192 22.561H1.112c-.603.057-1.114.621-1.112 1.225 0 14.71 4.664 28.403 12.042 38.459 7.362 10.032 17.49 16.479 28.38 16.51 9.307.232 19.714.097 27.078 0 10.92 0 21.08-6.49 28.458-16.548C103.335 80.035 108 66.366 108 51.676c0-.642-.585-1.226-1.227-1.226h-6.252c2.436-3.462 4.25-6.463 4.833-9.614.646-3.494-.442-7.085-3.26-11.186 4.08-9.768 1.576-18.12-3.95-22.599-5.433-4.403-13.567-4.976-20.557-.46-3.266-2.803-7.378-3.716-11.276-2.95-3.658.721-7.089 2.86-9.665 5.977-4.497-7.15-11.063-10.993-17.565-10.841z" mask="url(#prefix__b)"/><path fill="#FFF" stroke="#FFF" stroke-width=".4" d="M4.449 67.572h99.102c-1.95 7.965-5.282 15.196-9.587 21.067-7.034 9.59-16.496 15.536-26.426 15.552-8.629.095-18.447.095-27.038 0-9.945 0-19.422-5.915-26.464-15.514-4.311-5.876-7.638-13.114-9.587-21.105h0zM2.532 52.901h102.937a67.454 67.454 0 0 1-1.38 12.219H3.913c-.807-3.94-1.304-8.028-1.381-12.219h0zm18.332-9.882A6.115 6.115 0 0 1 27 49.148c0 .454-.06.876-.153 1.302H14.88a5.947 5.947 0 0 1-.154-1.302c0-3.4 2.733-6.129 6.137-6.129h0zM40.5 35.588a9.793 9.793 0 0 1 9.818 9.806c0 2.413-.616 3.696-1.419 5.056H32.101a9.753 9.753 0 0 1-1.42-5.056c.169-6.065 5.255-9.669 9.819-9.806h0zm5.523-13.522a1.839 1.839 0 1 0-.001 3.677 1.84 1.84 0 0 0 1.842-1.839 1.84 1.84 0 0 0-1.841-1.838h0z" mask="url(#prefix__b)"/><path fill="#FFF" stroke="#FFF" stroke-width=".4" d="M32.523 16.588c1.74 3.566 4.48 7.259 7.479 10.65 3.752 4.246 7.874 7.9 11.121 9.959-.103.526-.223 1.068-.307 1.609-2.184-3.403-5.98-5.67-10.316-5.67-2.441 0-4.725.72-6.635 1.954-1.77-5.71-2.595-11.439-1.342-18.502h0zm-10.815-1.762c3.752 2.143 6.177 4.897 7.709 7.853-.032 5.091 1.002 9.621 2.454 14.058-2.088 2.086-3.45 4.904-3.606 8.044a8.609 8.609 0 0 0-7.401-4.214c-4.73 0-8.591 3.856-8.591 8.581 0 .443.05.876.115 1.302H7.172c-3.027-7.62-2.934-15.205-.152-21.604 2.759-6.791 9.212-11.597 14.689-14.02h0zm12.54-.497l8.476 3.485c-.91.112-1.61.862-1.61 1.8a1.84 1.84 0 1 0 3.681 0c0-.419-.147-.8-.382-1.11l4.947 1.992a1.839 1.839 0 0 0 .958 3.408c1.39-.22 1.817-1.05 1.803-2.26l3.566 1.456c.387.5.408 1.14.499 1.533a2.454 2.454 0 0 0-4.641 1.111c0 1.354 1.1 2.45 2.455 2.45.04 0 .077.002.115 0a34.687 34.687 0 0 0-2.416 6.437c-1.078-.744-2.26-1.705-3.529-2.797a2.436 2.436 0 0 0 2.148-2.413c0-1.354-1.1-2.451-2.454-2.451a2.454 2.454 0 0 0-2.455 2.375 66.897 66.897 0 0 1-3.566-3.716c-2.828-3.65-5.889-7.43-7.595-11.3h0z" mask="url(#prefix__b)"/><path fill="#FFF" stroke="#FFF" stroke-width=".4" d="M76.59 8.89c.41.396 1.11.448 1.573.114C84.5 4.468 91.825 5.088 96.61 8.966c4.784 3.878 7.155 11.023 3.03 20.301-.167.38-.122.846.114 1.188 2.956 4.074 3.73 6.997 3.183 9.96-.533 2.884-2.49 5.997-5.407 10.035H61.708l6.597-6.934c3.335.023 6.264.243 8.13 2.107.452.462 1.283.472 1.746.02.461-.452.471-1.281.02-1.743-2.116-2.113-4.891-2.565-7.67-2.681l7.746-8.121c3.847-.03 7.205.223 9.204 2.107.452.461 1.284.471 1.745.02.463-.452.472-1.283.02-1.743-2.38-2.377-5.59-2.672-8.706-2.721l7.479-7.852c.504-.514.27-1.409-.265-1.837-.667-.421-.944-.1-1.5.152l-6.864 7.162c-.458-3.104-1.553-6.3-3.644-8.388a1.253 1.253 0 0 0-1.151-.383c-.892.162-1.28 1.492-.614 2.107 1.79 1.787 3 5.687 3.261 8.925L68.458 39.8c-.358-3.403-1.442-7.07-3.757-9.384a1.26 1.26 0 0 0-1.152-.384c-.892.162-1.28 1.493-.613 2.107 1.984 1.982 3.291 6.57 3.337 9.96l-7.978 8.35h-6.634a12.084 12.084 0 0 0 1.112-5.056c.014-8.314 2.436-15.528 5.907-20.148.262-.359.309-.864.114-1.264-1.21-2.416-2.065-4.44-2.34-6.359-.62-5.845 5.21-10.469 10.356-11.568 3.558-.678 7.602.75 9.78 2.835h0zM39.12 1.228c5.677-.133 11.72 3.175 15.839 10.075-1.013 2.336-1.265 4.534-.959 6.665.096.671.264 1.333.46 1.992l-21.822-8.925c-.881-.26-1.2.288-1.65.804a44.703 44.703 0 0 0-1.304 6.741c-1.405-2.653-3.569-4.488-5.1-5.324C27.079 6.228 32.956 1.52 39.118 1.228h0z" mask="url(#prefix__b)"/></g></g></svg>