<svg xmlns="http://www.w3.org/2000/svg" width="188" height="133" viewBox="0 0 188 133"><g fill="none" fill-rule="evenodd" transform="translate(1.97)"><rect width="118" height="108" x="67.531" fill="#7E3F97" fill-opacity=".154" rx="10"/><g stroke="#000" transform="translate(0 16.136)"><path stroke-linecap="square" stroke-width="2" d="M137.531 15.5v100m-100-100v100"/><rect width="141" height="15" x="16.111" fill="#FFF" stroke-width="2" rx="7.5"/><rect width="162" height="15" x="5.611" y="32" fill="#FFF" stroke-width="2" rx="7.5"/><rect width="173.221" height="15" y="64" fill="#FFF" stroke-width="2" rx="7.5"/><ellipse cx="40.411" cy="3" fill="#FFF" rx="6.5" ry="2.5"/><ellipse cx="102.011" cy="3" fill="#FFF" rx="6.5" ry="2.5"/><ellipse cx="71.211" cy="3" fill="#FFF" rx="6.5" ry="2.5"/><ellipse cx="132.811" cy="3" fill="#FFF" rx="6.5" ry="2.5"/><ellipse cx="34.111" cy="35" fill="#FFF" rx="6.5" ry="2.5"/><ellipse cx="104.111" cy="35" fill="#FFF" rx="6.5" ry="2.5"/><ellipse cx="69.111" cy="35" fill="#FFF" rx="6.5" ry="2.5"/><ellipse cx="139.111" cy="35" fill="#FFF" rx="6.5" ry="2.5"/><ellipse cx="30.744" cy="67" fill="#FFF" rx="6.5" ry="2.5"/><ellipse cx="105.233" cy="67" fill="#FFF" rx="6.5" ry="2.5"/><ellipse cx="67.989" cy="67" fill="#FFF" rx="6.5" ry="2.5"/><ellipse cx="142.477" cy="67" fill="#FFF" rx="6.5" ry="2.5"/><path stroke-linecap="square" stroke-width="2" d="M28.531 115.5h117"/></g></g></svg>