<svg xmlns="http://www.w3.org/2000/svg" xmlns:xlink="http://www.w3.org/1999/xlink" width="155" height="152" viewBox="0 0 155 152">
    <defs>
        <path id="prefix__a" d="M0 0H119V77H0z"/>
    </defs>
    <g fill="none" fill-rule="evenodd">
        <path fill="#EBE2EF" d="M4.213 100c2.326 0 4.212 1.886 4.212 4.213 0 2.326-1.886 4.212-4.212 4.212-2.327 0-4.213-1.886-4.213-4.212C0 101.886 1.886 100 4.213 100zm20 0l.21.005c2.229.11 4.002 1.952 4.002 4.208 0 2.326-1.886 4.212-4.212 4.212-2.327 0-4.213-1.886-4.213-4.212 0-2.327 1.886-4.213 4.213-4.213zm20 0c2.326 0 4.212 1.886 4.212 4.213 0 2.326-1.886 4.212-4.212 4.212-2.327 0-4.213-1.886-4.213-4.212 0-2.327 1.886-4.213 4.213-4.213zm20 0c2.326 0 4.212 1.886 4.212 4.213 0 2.326-1.886 4.212-4.212 4.212-2.327 0-4.213-1.886-4.213-4.212 0-2.327 1.886-4.213 4.213-4.213zm-40-20l.21.005c2.229.11 4.002 1.952 4.002 4.208 0 2.326-1.886 4.212-4.212 4.212-2.327 0-4.213-1.886-4.213-4.212C20 81.886 21.886 80 24.213 80zm20 0l.21.005c2.229.11 4.002 1.952 4.002 4.208 0 2.326-1.886 4.212-4.212 4.212-2.327 0-4.213-1.886-4.213-4.212C40 81.886 41.886 80 44.213 80zm40 0c2.326 0 4.212 1.886 4.212 4.213 0 2.326-1.886 4.212-4.212 4.212-2.327 0-4.213-1.886-4.213-4.212C80 81.886 81.886 80 84.213 80zm-80 0l.21.005c2.229.11 4.002 1.952 4.002 4.208 0 2.326-1.886 4.212-4.212 4.212C1.886 88.425 0 86.54 0 84.213 0 81.886 1.886 80 4.213 80zm60-20l.21.005c2.229.11 4.002 1.952 4.002 4.208 0 2.326-1.886 4.212-4.212 4.212-2.327 0-4.213-1.886-4.213-4.212C60 61.886 61.886 60 64.213 60zm-60 0l.21.005c2.229.11 4.002 1.952 4.002 4.208 0 2.326-1.886 4.212-4.212 4.212C1.886 68.425 0 66.54 0 64.213 0 61.886 1.886 60 4.213 60zm20 0l.21.005c2.229.11 4.002 1.952 4.002 4.208 0 2.326-1.886 4.212-4.212 4.212-2.327 0-4.213-1.886-4.213-4.212C20 61.886 21.886 60 24.213 60zm20 0l.21.005c2.229.11 4.002 1.952 4.002 4.208 0 2.326-1.886 4.212-4.212 4.212-2.327 0-4.213-1.886-4.213-4.212C40 61.886 41.886 60 44.213 60zm40 0c2.326 0 4.212 1.886 4.212 4.213 0 2.326-1.886 4.212-4.212 4.212-2.327 0-4.213-1.886-4.213-4.212C80 61.886 81.886 60 84.213 60zm20 0c2.326 0 4.212 1.886 4.212 4.213 0 2.326-1.886 4.212-4.212 4.212-2.327 0-4.213-1.886-4.213-4.212 0-2.327 1.886-4.213 4.213-4.213zm-100-20l.21.005c2.229.11 4.002 1.952 4.002 4.208 0 2.326-1.886 4.212-4.212 4.212C1.886 48.425 0 46.54 0 44.213 0 41.886 1.886 40 4.213 40zm20 0l.21.005c2.229.11 4.002 1.952 4.002 4.208 0 2.326-1.886 4.212-4.212 4.212-2.327 0-4.213-1.886-4.213-4.212C20 41.886 21.886 40 24.213 40zm40 0l.21.005c2.229.11 4.002 1.952 4.002 4.208 0 2.326-1.886 4.212-4.212 4.212-2.327 0-4.213-1.886-4.213-4.212C60 41.886 61.886 40 64.213 40zm40 0c2.326 0 4.212 1.886 4.212 4.213 0 2.326-1.886 4.212-4.212 4.212-2.327 0-4.213-1.886-4.213-4.212 0-2.327 1.886-4.213 4.213-4.213zm-20 0l.21.005c2.229.11 4.002 1.952 4.002 4.208 0 2.326-1.886 4.212-4.212 4.212-2.327 0-4.213-1.886-4.213-4.212C80 41.886 81.886 40 84.213 40zm-40 0l.21.005c2.229.11 4.002 1.952 4.002 4.208 0 2.326-1.886 4.212-4.212 4.212-2.327 0-4.213-1.886-4.213-4.212C40 41.886 41.886 40 44.213 40zm-40-20c2.326 0 4.212 1.886 4.212 4.213 0 2.326-1.886 4.212-4.212 4.212C1.886 28.425 0 26.54 0 24.213 0 21.886 1.886 20 4.213 20zm20 0c2.326 0 4.212 1.886 4.212 4.213 0 2.326-1.886 4.212-4.212 4.212-2.327 0-4.213-1.886-4.213-4.212C20 21.886 21.886 20 24.213 20zm40 0c2.326 0 4.212 1.886 4.212 4.213 0 2.326-1.886 4.212-4.212 4.212-2.327 0-4.213-1.886-4.213-4.212C60 21.886 61.886 20 64.213 20zm20 0c2.326 0 4.212 1.886 4.212 4.213 0 2.326-1.886 4.212-4.212 4.212-2.327 0-4.213-1.886-4.213-4.212C80 21.886 81.886 20 84.213 20zm-40 0c2.326 0 4.212 1.886 4.212 4.213 0 2.326-1.886 4.212-4.212 4.212-2.327 0-4.213-1.886-4.213-4.212C40 21.886 41.886 20 44.213 20zm60 0c2.326 0 4.212 1.886 4.212 4.213 0 2.326-1.886 4.212-4.212 4.212-2.327 0-4.213-1.886-4.213-4.212 0-2.327 1.886-4.213 4.213-4.213zm-100-20c2.326 0 4.212 1.886 4.212 4.213 0 2.326-1.886 4.212-4.212 4.212C1.886 8.425 0 6.54 0 4.213 0 1.886 1.886 0 4.213 0zm20 0c2.326 0 4.212 1.886 4.212 4.213 0 2.326-1.886 4.212-4.212 4.212C21.886 8.425 20 6.54 20 4.213 20 1.886 21.886 0 24.213 0zm40 0c2.326 0 4.212 1.886 4.212 4.213 0 2.326-1.886 4.212-4.212 4.212C61.886 8.425 60 6.54 60 4.213 60 1.886 61.886 0 64.213 0zm20 0c2.326 0 4.212 1.886 4.212 4.213 0 2.326-1.886 4.212-4.212 4.212C81.886 8.425 80 6.54 80 4.213 80 1.886 81.886 0 84.213 0zm-40 0c2.326 0 4.212 1.886 4.212 4.213 0 2.326-1.886 4.212-4.212 4.212C41.886 8.425 40 6.54 40 4.213 40 1.886 41.886 0 44.213 0zm60 0c2.326 0 4.212 1.886 4.212 4.213 0 2.326-1.886 4.212-4.212 4.212-2.327 0-4.213-1.886-4.213-4.212C100 1.886 101.886 0 104.213 0z"/>
        <g>
            <g transform="translate(36 2) translate(0 73)">
                <mask id="prefix__b" fill="#fff">
                    <use xlink:href="#prefix__a"/>
                </mask>
                <g fill="#FFF" stroke="#000" stroke-width="2" mask="url(#prefix__b)">
                    <g transform="translate(-321 19)">
                        <rect width="461.176" height="37" rx="7.5"/>
                        <ellipse cx="380" cy="9" rx="22" ry="8"/>
                    </g>
                </g>
                <ellipse cx="59" cy="23" fill="#FFF" stroke="#000" stroke-width="2" rx="22" ry="8"/>
                <ellipse cx="59.564" cy="21" fill="#FFF" stroke="#000" stroke-width="2" rx="17.564" ry="6"/>
                <ellipse cx="59" cy="22" fill="#FFF" stroke="#000" stroke-width="2" rx="19" ry="6"/>
                <path fill="#FFF" stroke="#000" stroke-width="2" d="M59 28c7.87 0 16.25-2.015 16.25-4.5S66.87 19 59 19c-7.87 0-17.25 2.015-17.25 4.5S51.13 28 59 28z"/>
                <path stroke="#000" d="M57.5 31.5H61.5V35.5H57.5zM36.923 24.63l1.498 5.993 2.535.938-1.394-4.292-2.64-2.639zM80.827 24.63l-1.498 5.993-2.535.938 1.394-4.292 2.64-2.639z"/>
            </g>
            <g fill-rule="nonzero">
                <path fill="#FFFDFD" d="M50.557 0c-4.985 0-9.522 3.02-11.493 7.57l-.158.382-.143.363-.377.087c-4.434 1.027-7.585 4.98-7.585 9.584 0 .23.014.48.041.768l.033.3.199 1.693-1.366-1.006c-3.52-2.592-8.192-3.155-12.19-1.428-5.316 2.295-8.293 8.041-7.195 13.758l.01.124.069.274.005.032.146.613-.595.236c-.088.035-.178.073-.274.114-6.24 2.696-9.13 9.978-6.44 16.23.343.799.765 1.55 1.263 2.25l.307.413.456.585-.582.458c-.2.159-.392.319-.576.482l-.24.227-.08.097C.113 57.746-1.04 63.244 1 67.988c1.993 4.635 6.601 7.564 11.596 7.45l.418-.016.39-.022.237.313c7.112 9.397 16.312 15.578 26.609 19.164 3.658 1.274 7.215 2.13 10.543 2.643 1.76.271 3.172.409 4.158.46l.543.02c.062 0 .126-.007.197-.02l.3-.078.192.05c.077.022.151.036.221.043l.132.005.785-.036c.974-.061 2.287-.197 3.886-.444 3.329-.513 6.885-1.369 10.543-2.642 10.025-3.491 19.01-9.444 26.042-18.43l.803-1.047.39.021c5.157.285 9.979-2.699 12.014-7.434 2.042-4.747.889-10.245-2.815-13.812l-.077-.095-.221-.203-.282-.244-.29-.236-.58-.458.454-.583c.633-.816 1.158-1.706 1.572-2.664 2.686-6.254-.203-13.533-6.445-16.23l-.275-.115-.597-.242.153-.62.02-.094.05-.195.02-.183c1.096-5.652-1.88-11.405-7.203-13.703-3.646-1.577-7.99-1.205-11.396.91l-.375.242-1.146.771v-1.388l.007-.12-.026-.412C81.025 9.96 76.442 4.702 69.172 4.077c-2.226-.193-4.484.405-6.568 1.734l-.414.276-.63.436-.41-.65C58.862 2.246 54.842 0 50.557 0z" transform="translate(36 2) translate(3)"/>
                <path fill="#000" d="M50.557 0c-4.985 0-9.522 3.02-11.493 7.57l-.158.382-.143.363-.377.087c-4.434 1.027-7.585 4.98-7.585 9.584 0 .23.014.48.041.768l.033.3.199 1.693-1.366-1.006c-3.52-2.592-8.192-3.155-12.19-1.428-5.316 2.295-8.293 8.041-7.195 13.758l.01.124.069.274.005.032.146.613-.595.236c-.088.035-.178.073-.274.114-6.24 2.696-9.13 9.978-6.44 16.23.343.799.765 1.55 1.263 2.25l.307.413.456.585-.582.458c-.2.159-.392.319-.576.482l-.24.227-.08.097C.113 57.746-1.04 63.244 1 67.988c1.993 4.635 6.601 7.564 11.596 7.45l.418-.016.39-.022.237.313c7.112 9.397 16.312 15.578 26.609 19.164 3.658 1.274 7.215 2.13 10.543 2.643 1.76.271 3.172.409 4.158.46l.543.02c.062 0 .126-.007.197-.02l.3-.078.192.05c.077.022.151.036.221.043l.132.005.785-.036c.974-.061 2.287-.197 3.886-.444 3.329-.513 6.885-1.369 10.543-2.642 10.025-3.491 19.01-9.444 26.042-18.43l.803-1.047.39.021c5.157.285 9.979-2.699 12.014-7.434 2.042-4.747.889-10.245-2.815-13.812l-.077-.095-.221-.203-.282-.244-.29-.236-.58-.458.454-.583c.633-.816 1.158-1.706 1.572-2.664 2.686-6.254-.203-13.533-6.445-16.23l-.275-.115-.597-.242.153-.62.02-.094.05-.195.02-.183c1.096-5.652-1.88-11.405-7.203-13.703-3.646-1.577-7.99-1.205-11.396.91l-.375.242-1.146.771v-1.388l.007-.12-.026-.412C81.025 9.96 76.442 4.702 69.172 4.077c-2.226-.193-4.484.405-6.568 1.734l-.414.276-.63.436-.41-.65C58.862 2.246 54.842 0 50.557 0zm-8.99 20.287l.432.161c2.44.973 4.36 2.844 5.4 5.26 1.915 4.455.256 9.73-3.86 12.28-.322.2-.535.534-.58.909-.045.374.084.75.35 1.02.87.884 1.557 1.9 2.04 3.022.486 1.128.75 2.344.785 3.586l.002.468-.008.487-.626.252c-1.657.716-3.103 1.756-4.3 3.097-.458.511-.414 1.296.096 1.754.232.208.525.318.832.318.353 0 .69-.147.928-.414.955-1.07 2.11-1.901 3.432-2.471.355-.153.73-.283 1.175-.414 1.316-.38 2.706-.47 4.074-.277l.513.086 1.316.255-.92.983c-1.006 1.075-1.797 2.256-2.348 3.538-2.638 6.137.094 13.26 6.098 16.076l.406.182.32.122.114.326c2.335 6.7 2.356 14.46-.93 23.06l-.282.72-.358.892-.842-.637-.772-.49c-10.11-6.53-17.102-14.793-21.428-24.287l-.518-1.168 5.857-7.268c.43-.535.348-1.316-.186-1.747-.49-.397-1.19-.36-1.637.062l-.115.125-4.984 6.186-.432-1.265c-.862-2.524-1.531-5.07-2.029-7.636l-.202-1.101-.052-.294.165-.248 6.112-7.587c.394-.49.357-1.186-.062-1.631l-.124-.115c-.49-.397-1.192-.36-1.638.062l-.114.124-4.84 6.007-.146-1.85c-.203-2.588-.224-5.004-.11-7.195l.047-.805c.07-1.02.16-1.828.243-2.374.104-.677-.36-1.312-1.039-1.418-.682-.105-1.316.359-1.42 1.036l-.04.286c-.076.61-.169 1.685-.223 2.996-.094 2.268-.054 4.756.165 7.412l.09 1.004.118 1.202-5.131-2.01c-.644-.252-1.365.066-1.614.708-.23.59.021 1.248.565 1.543l.142.066 6.444 2.521.07.415c.497 2.942 1.214 5.9 2.167 8.836l.369 1.1.416 1.203-6.564-1.205c-.684-.12-1.332.328-1.454 1-.114.623.258 1.223.848 1.41l.152.037 8.115 1.488.158.361c3.594 8.262 9.045 15.643 16.648 21.84l.768.616 2.633 2.08-3.257-.773c-12.352-2.93-23.741-9.465-32.005-20.847-.273-.377-.73-.568-1.194-.5-4.411.679-8.733-1.725-10.5-5.838-1.686-3.922-.635-8.47 2.522-11.273.17-.152.348-.298.535-.442l.406-.297c.157-.112.231-.164.332-.227.466-.294.902-.531 1.347-.725 1.17-.506 2.42-.772 3.744-.802h.5c.672.041 1.242-.501 1.266-1.202.023-.686-.514-1.261-1.204-1.284-1.418-.05-2.82.156-4.196.61l-.515.181-.47.177-.336-.376c-.708-.793-1.274-1.673-1.687-2.634-2.148-4.996.158-10.813 5.143-12.967l.102-.038.143-.041.581-.231.321.54c.6 1.01 1.315 1.91 2.143 2.689.234.22.537.337.852.337.345 0 .671-.139.91-.395.468-.501.442-1.286-.058-1.755-.865-.812-1.567-1.762-2.1-2.852l-.219-.476-.023-.065-.125-.314c-1.85-4.895.474-10.464 5.304-12.55 2.986-1.288 6.437-.974 9.175.775l.339.226.605.422-.418.61c-.755 1.103-1.327 2.312-1.693 3.593-.189.66.191 1.348.852 1.538.113.033.228.049.344.049.551 0 1.043-.366 1.196-.902.432-1.51 1.216-2.883 2.285-4.025l.548-.546c.04-.037.074-.069.113-.102l.308-.258.417-.327.072-.053c.123-.088.25-.173.394-.264l.481-.297.312-.17.19-.095v-.016l.433-.187c2.284-.986 4.787-1.078 7.107-.274zm32.073-.533c1.17 0 2.318.208 3.417.618l.512.208.271.124.314.156.417.233.14.088c.168.101.312.191.444.28l.258.18.518.408.3.258.256.246c1.238 1.21 2.133 2.698 2.604 4.352.154.536.646.903 1.195.903.114 0 .231-.016.345-.049.66-.19 1.041-.878.853-1.536-.314-1.099-.779-2.144-1.378-3.112l-.311-.477-.42-.613.61-.421c2.785-1.923 6.436-2.33 9.506-1.004 4.832 2.084 7.157 7.654 5.304 12.549l-.133.332-.01.017-.02.065c-.54 1.255-1.315 2.364-2.304 3.292-.5.469-.525 1.254-.057 1.755.238.256.566.395.91.395.315 0 .618-.118.852-.337.693-.65 1.306-1.386 1.839-2.2l.31-.499.319-.538.826.32c4.98 2.152 7.288 7.967 5.143 12.963-.355.823-.823 1.589-1.396 2.29l-.295.344-.335.374-.469-.175c-1.548-.58-3.13-.85-4.714-.79-.688.023-1.224.598-1.202 1.284.021.63.533 1.156 1.141 1.2h.154c1.478-.03 2.9.235 4.218.805.332.144.66.313 1.002.515l.424.261.37.261c.294.21.568.427.825.654 3.157 2.802 4.207 7.35 2.52 11.27-1.554 3.615-5.098 5.95-9.03 5.95-.487 0-.981-.038-1.465-.111-.465-.068-.926.125-1.198.5-8.068 11.11-19.143 17.599-31.218 20.644l-.756.185-3.267.783 2.641-2.089c7.734-6.114 13.31-13.42 17.026-21.612l.523-1.183 8.116-1.488c.676-.125 1.122-.773 1-1.447-.113-.622-.672-1.05-1.293-1.018l-.157.017-6.568 1.204.415-1.202c1.013-2.932 1.788-5.891 2.34-8.833l.266-1.517 6.444-2.521c.64-.25.954-.97.706-1.609-.231-.591-.867-.907-1.466-.756l-.149.048-5.13 2.008.117-1.202c.297-3.033.361-5.864.256-8.414l-.052-1.016c-.065-1.059-.15-1.872-.21-2.265-.108-.683-.74-1.146-1.424-1.037-.68.106-1.143.742-1.038 1.413l.04.275c.069.547.156 1.52.21 2.658.091 1.941.077 4.075-.077 6.361l-.075.989-.153 1.836-4.75-5.897c-.433-.535-1.217-.62-1.753-.186-.49.396-.6 1.084-.283 1.607l.097.138 6.187 7.678-.06.334c-.449 2.542-1.072 5.099-1.878 7.64l-.357 1.087-.43 1.27-4.887-6.065c-.432-.537-1.216-.62-1.753-.186-.488.395-.599 1.084-.282 1.607l.097.139 5.765 7.155-.18.414C75.885 77.91 70 85.563 61.66 91.833l-.79.584-1.76 1.28.623-2.095c2.495-8.402 2.014-15.95-.486-22.45-.133-.347-.415-.616-.767-.733l-.345-.119c-.152-.054-.278-.103-.408-.159-4.983-2.153-7.29-7.97-5.141-12.965.79-1.84 2.12-3.376 3.923-4.496.116-.047.21-.099.383-.222 1.465-.804 3.08-1.236 4.728-1.236.932 0 1.86.134 2.756.398.417.123.784.252 1.136.402 1.32.57 2.475 1.402 3.43 2.47.24.27.574.416.93.416.304 0 .597-.11.83-.319.511-.457.554-1.241.097-1.752-1.077-1.206-2.356-2.17-3.811-2.873l-.542-.243-.13-.05-.444-.187-.008-.483c-.025-1.405.241-2.785.788-4.054.481-1.12 1.168-2.137 2.041-3.023.265-.27.393-.644.347-1.02-.045-.376-.258-.71-.58-.91-4.116-2.55-5.774-7.825-3.859-12.278 1.557-3.622 5.106-5.962 9.04-5.962zM50.556 2.486c4.16 0 7.934 2.628 9.396 6.546.148.396.486.69.897.78.414.09.85-.037 1.148-.332 1.916-1.907 4.298-3.15 6.963-2.926 6.087.525 9.093 4.616 9.929 10.325l.055.4.155 1.222-1.144-.432c-1.41-.531-2.856-.802-4.314-.802-4.93 0-9.376 2.93-11.327 7.467-2.032 4.725-.857 10.279 2.819 13.81l.312.29.49.44-.376.541c-.473.68-.872 1.398-1.194 2.15-.491 1.138-.805 2.346-.933 3.583l-.044.531-.045.754-.748-.059c-.325-.025-.65-.038-.976-.038-1.67 0-3.307.342-4.835.996l-.505.23-.315.15-.315-.149c-1.83-.864-3.804-1.282-5.759-1.212l-.488.028-.748.058-.045-.754c-.084-1.42-.413-2.812-.975-4.118-.26-.605-.568-1.186-.921-1.74l-.274-.41-.377-.541.491-.44c3.92-3.509 5.218-9.24 3.13-14.099-1.305-3.031-3.704-5.37-6.765-6.59-2.603-1.037-5.423-1.151-8.088-.345l-.498.162-1.103.384.13-1.168c.38-3.435 3.054-6.141 6.486-6.505.505-.053.926-.408 1.065-.895 1.227-4.296 5.192-7.292 9.646-7.292z" transform="translate(36 2) translate(3)"/>
            </g>
        </g>
    </g>
</svg>
